<svg id="Layer_1" data-name="Layer 1" xmlns="http://www.w3.org/2000/svg" viewBox="0 0 1650.78 445.91"><defs><style>.cls-1{font-size:177.59px;font-family:GoudyOldStyleT-Bold, Goudy Old Style;font-weight:700;}.cls-1,.cls-6{fill:#fff;}.cls-2{letter-spacing:-0.02em;}.cls-3{letter-spacing:-0.01em;}.cls-4{letter-spacing:0em;}.cls-5{letter-spacing:-0.01em;}</style></defs><text class="cls-1" transform="translate(0 399.77) scale(1.01 1)">M<tspan class="cls-2" x="156.95" y="0">o</tspan><tspan x="242.8" y="0">vimen</tspan><tspan class="cls-3" x="690.6" y="0">t</tspan><tspan class="cls-4" x="746.62" y="0">os da Psi</tspan><tspan class="cls-5" x="1372.09" y="0">q</tspan><tspan x="1460.89" y="0">uê</tspan></text><path class="cls-6" d="M1074.32,476.74a12.23,12.23,0,0,1-.92,5.63c-1.07,2.62-3,4.64-6.1,6.82a44.12,44.12,0,0,1-16.66,6.58c-7.79,1.54-7.72.25-17.87,1.71a109.67,109.67,0,0,0-16.92,3.75,71.91,71.91,0,0,0-12.62,5,83,83,0,0,0-9.14,5.63c-6.29,4.43-9.22,7.72-10,7.14-.38-.3.19-1.36,2.43-6.79,2-4.86,1.8-4.61,2.51-6.16a58.45,58.45,0,0,1,5.16-8.72,92,92,0,0,1,12.41-14.75c5.38-5.11,14.73-13.94,29.44-17.84,5.6-1.5,16.58-4.42,27.07.52C1065.36,466.26,1073.59,470.14,1074.32,476.74Z" transform="translate(-154.41 -295.57)"/><path class="cls-6" d="M1058.63,517.29" transform="translate(-154.41 -295.57)"/><path class="cls-6" d="M864.12,494.88a12,12,0,0,0,1.75,5c1.47,2.38,4.62,4.27,7,5.68a35.8,35.8,0,0,0,10.4,4c7.07,1.57,14.38,1,21.54.52a97.34,97.34,0,0,1,21.45.62,58.69,58.69,0,0,1,12,3.18,44.76,44.76,0,0,1,5.87,2.74c1.24.69,2.25,2,3.59,2.46,2.59,1,.42-2.22-.2-3.32-6.85-12.34-17-22-29.3-29.1C911,482.51,903.54,478.84,895,478c-6.31-.62-12.9-.25-18.77,2.28C870.61,482.68,863.57,488.17,864.12,494.88Z" transform="translate(-154.41 -295.57)"/><path class="cls-6" d="M1008.41,393a57.6,57.6,0,0,1,2.15,29.5c-1.13,6-3.67,19.45-15.86,29.85-3.08,2.63-13.61,11.35-29.23,11.05-14.23-.27-23.73-7.87-27-10.56-10.65-8.74-14-19.56-15.58-24.81-.75-2.51-4.79-16.75.1-31.42.85-2.54,2.11-5.55,4-10.09.54-1.3,2.87-6.79,7.32-16.07,2.68-5.56,4.75-9.69,6.4-13,6.4-12.63,7.06-13.11,10.14-19.8,3.17-6.86,5.26-12.35,6.44-15.47,3.07-8.08,4.6-12.12,5.91-17.31,1.45-5.71,1.88-9.38,2.84-9.38s1.39,3.62,2.83,9.29c1.57,6.11,3.23,10.28,5.95,17.31.83,2.13,2.21,5.52,6.86,15.18,5.08,10.56,10.59,21.38,16.94,33.84,1.17,2.28,3.57,7,6.38,13.48C1006.41,388,1007.8,391.37,1008.41,393Z" transform="translate(-154.41 -295.57)"/><text class="cls-1" transform="translate(0 399.77) scale(1.01 1)">M<tspan class="cls-2" x="156.95" y="0">o</tspan><tspan x="242.8" y="0">vimen</tspan><tspan class="cls-3" x="690.6" y="0">t</tspan><tspan class="cls-4" x="746.62" y="0">os da Psi</tspan><tspan class="cls-5" x="1372.09" y="0">q</tspan><tspan x="1460.89" y="0">uê</tspan></text><path class="cls-6" d="M1074.32,476.74a12.23,12.23,0,0,1-.92,5.63c-1.07,2.62-3,4.64-6.1,6.82a44.12,44.12,0,0,1-16.66,6.58c-7.79,1.54-7.72.25-17.87,1.71a109.67,109.67,0,0,0-16.92,3.75,71.91,71.91,0,0,0-12.62,5,83,83,0,0,0-9.14,5.63c-6.29,4.43-9.22,7.72-10,7.14-.38-.3.19-1.36,2.43-6.79,2-4.86,1.8-4.61,2.51-6.16a58.45,58.45,0,0,1,5.16-8.72,92,92,0,0,1,12.41-14.75c5.38-5.11,14.73-13.94,29.44-17.84,5.6-1.5,16.58-4.42,27.07.52C1065.36,466.26,1073.59,470.14,1074.32,476.74Z" transform="translate(-154.41 -295.57)"/><path class="cls-6" d="M1058.63,517.29" transform="translate(-154.41 -295.57)"/><path class="cls-6" d="M864.12,494.88a12,12,0,0,0,1.75,5c1.47,2.38,4.62,4.27,7,5.68a35.8,35.8,0,0,0,10.4,4c7.07,1.57,14.38,1,21.54.52a97.34,97.34,0,0,1,21.45.62,58.69,58.69,0,0,1,12,3.18,44.76,44.76,0,0,1,5.87,2.74c1.24.69,2.25,2,3.59,2.46,2.59,1,.42-2.22-.2-3.32-6.85-12.34-17-22-29.3-29.1C911,482.51,903.54,478.84,895,478c-6.31-.62-12.9-.25-18.77,2.28C870.61,482.68,863.57,488.17,864.12,494.88Z" transform="translate(-154.41 -295.57)"/><path class="cls-6" d="M1008.41,393a57.6,57.6,0,0,1,2.15,29.5c-1.13,6-3.67,19.45-15.86,29.85-3.08,2.63-13.61,11.35-29.23,11.05-14.23-.27-23.73-7.87-27-10.56-10.65-8.74-14-19.56-15.58-24.81-.75-2.51-4.79-16.75.1-31.42.85-2.54,2.11-5.55,4-10.09.54-1.3,2.87-6.79,7.32-16.07,2.68-5.56,4.75-9.69,6.4-13,6.4-12.63,7.06-13.11,10.14-19.8,3.17-6.86,5.26-12.35,6.44-15.47,3.07-8.08,4.6-12.12,5.91-17.31,1.45-5.71,1.88-9.38,2.84-9.38s1.39,3.62,2.83,9.29c1.57,6.11,3.23,10.28,5.95,17.31.83,2.13,2.21,5.52,6.86,15.18,5.08,10.56,10.59,21.38,16.94,33.84,1.17,2.28,3.57,7,6.38,13.48C1006.41,388,1007.8,391.37,1008.41,393Z" transform="translate(-154.41 -295.57)"/><text class="cls-1" transform="translate(0 399.77) scale(1.01 1)">M<tspan class="cls-2" x="156.95" y="0">o</tspan><tspan x="242.8" y="0">vimen</tspan><tspan class="cls-3" x="690.6" y="0">t</tspan><tspan class="cls-4" x="746.62" y="0">os da Psi</tspan><tspan class="cls-5" x="1372.09" y="0">q</tspan><tspan x="1460.89" y="0">uê</tspan></text><path class="cls-6" d="M1074.32,476.74a12.23,12.23,0,0,1-.92,5.63c-1.07,2.62-3,4.64-6.1,6.82a44.12,44.12,0,0,1-16.66,6.58c-7.79,1.54-7.72.25-17.87,1.71a109.67,109.67,0,0,0-16.92,3.75,71.91,71.91,0,0,0-12.62,5,83,83,0,0,0-9.14,5.63c-6.29,4.43-9.22,7.72-10,7.14-.38-.3.19-1.36,2.43-6.79,2-4.86,1.8-4.61,2.51-6.16a58.45,58.45,0,0,1,5.16-8.72,92,92,0,0,1,12.41-14.75c5.38-5.11,14.73-13.94,29.44-17.84,5.6-1.5,16.58-4.42,27.07.52C1065.36,466.26,1073.59,470.14,1074.32,476.74Z" transform="translate(-154.41 -295.57)"/><path class="cls-6" d="M1058.63,517.29" transform="translate(-154.41 -295.57)"/><path class="cls-6" d="M864.12,494.88a12,12,0,0,0,1.75,5c1.47,2.38,4.62,4.27,7,5.68a35.8,35.8,0,0,0,10.4,4c7.07,1.57,14.38,1,21.54.52a97.34,97.34,0,0,1,21.45.62,58.69,58.69,0,0,1,12,3.18,44.76,44.76,0,0,1,5.87,2.74c1.24.69,2.25,2,3.59,2.46,2.59,1,.42-2.22-.2-3.32-6.85-12.34-17-22-29.3-29.1C911,482.51,903.54,478.84,895,478c-6.31-.62-12.9-.25-18.77,2.28C870.61,482.68,863.57,488.17,864.12,494.88Z" transform="translate(-154.41 -295.57)"/><path class="cls-6" d="M1008.41,393a57.6,57.6,0,0,1,2.15,29.5c-1.13,6-3.67,19.45-15.86,29.85-3.08,2.63-13.61,11.35-29.23,11.05-14.23-.27-23.73-7.87-27-10.56-10.65-8.74-14-19.56-15.58-24.81-.75-2.51-4.79-16.75.1-31.42.85-2.54,2.11-5.55,4-10.09.54-1.3,2.87-6.79,7.32-16.07,2.68-5.56,4.75-9.69,6.4-13,6.4-12.63,7.06-13.11,10.14-19.8,3.17-6.86,5.26-12.35,6.44-15.47,3.07-8.08,4.6-12.12,5.91-17.31,1.45-5.71,1.88-9.38,2.84-9.38s1.39,3.62,2.83,9.29c1.57,6.11,3.23,10.28,5.95,17.31.83,2.13,2.21,5.52,6.86,15.18,5.08,10.56,10.59,21.38,16.94,33.84,1.17,2.28,3.57,7,6.38,13.48C1006.41,388,1007.8,391.37,1008.41,393Z" transform="translate(-154.41 -295.57)"/></svg>